<?xml version="1.0" encoding="utf-8"?>
<!-- Generator: Adobe Illustrator 26.2.1, SVG Export Plug-In . SVG Version: 6.00 Build 0)  -->
<svg version="1.1" id="Group_43161" xmlns="http://www.w3.org/2000/svg" xmlns:xlink="http://www.w3.org/1999/xlink" x="0px"
	 y="0px" viewBox="0 0 154 154" style="enable-background:new 0 0 154 154;" xml:space="preserve">
<style type="text/css">
	
		.st0{clip-path:url(#SVGID_00000149363692832590418980000006798624523241793177_);fill:none;stroke:#00BDC3;stroke-width:4;stroke-linejoin:round;}
	.st1{clip-path:url(#SVGID_00000149363692832590418980000006798624523241793177_);}
	.st2{fill:none;stroke:#00BDC3;stroke-width:4;stroke-linejoin:round;}
	.st3{fill:none;stroke:#00BDC3;stroke-width:4;stroke-miterlimit:10;}
</style>
<g>
	<defs>
		<rect id="SVGID_1_" width="154" height="154"/>
	</defs>
	<clipPath id="SVGID_00000059992397061580297150000001751625951952373639_">
		<use xlink:href="#SVGID_1_"  style="overflow:visible;"/>
	</clipPath>
	
		<path id="Path_57222" style="clip-path:url(#SVGID_00000059992397061580297150000001751625951952373639_);fill:none;stroke:#00BDC3;stroke-width:4;stroke-linejoin:round;" d="
		M63.8,60.9l8.8-0.8l4.1-7.2l3.8,7.2l8.3,0.8l-5.9,5.8l1.3,8.1l-7.6-4l-8.1,4l1.9-8.1L63.8,60.9z"/>
	<g id="Group_43159" style="clip-path:url(#SVGID_00000059992397061580297150000001751625951952373639_);">
		<path id="Path_57223" class="st2" d="M53.8,56.3c-0.4-8.9-14.9-11.9-14.9,1.2c0,19.3,26.3,23.8,26.3,23.8"/>
		<path id="Path_57224" class="st2" d="M98.1,110.9c0.1-3.9,0.1-7.6-5.6-7.9c-9-0.4-15-12.3-4.8-20.8c13.1-10.8,13.4-28.8,12.7-39.1
			H53.6c-0.7,10.3-0.4,28.3,12.7,39.1c10.3,8.5,4.2,20.4-4.8,20.8c-5.7,0.3-5.7,4-5.6,7.9H98.1z"/>
		<path id="Path_57225" class="st2" d="M100.2,56.3c0.4-8.9,14.9-11.9,14.9,1.2c0,19.3-26.3,23.8-26.3,23.8"/>
	</g>
</g>
<circle id="Ellipse_89" class="st3" cx="77" cy="77" r="75"/>
</svg>
