<svg id="Group_43158" data-name="Group 43158" xmlns="http://www.w3.org/2000/svg" xmlns:xlink="http://www.w3.org/1999/xlink" width="154" height="154" viewBox="0 0 154 154">
  <defs>
    <clipPath id="clip-path">
      <rect id="Rectangle_18882" data-name="Rectangle 18882" width="154" height="154" fill="none"/>
    </clipPath>
  </defs>
  <g id="Group_43157" data-name="Group 43157" clip-path="url(#clip-path)">
    <circle id="Ellipse_88" data-name="Ellipse 88" cx="75" cy="75" r="75" transform="translate(2 2)" fill="none" stroke="#00bdc3" stroke-miterlimit="10" stroke-width="4"/>
    <path id="Path_57218" data-name="Path 57218" d="M49.341,85.871V68.129h3.224l8.4,11.819V68.129h3.719V85.871H61.463l-8.4-11.819V85.871Z" fill="#00bdc3"/>
    <path id="Path_57219" data-name="Path 57219" d="M67.826,85.871V68.129H80.554v2.893H71.545v4.546h7.989v2.865H71.545v4.573h9.009v2.865Z" fill="#00bdc3"/>
    <path id="Path_57220" data-name="Path 57220" d="M86.725,85.871,82.593,68.129h3.664l2.672,11.984,2.893-9.67V68.129h3.03l3.417,12.012,2.755-12.012h3.636l-4.105,17.742H97.029l-3.251-11.35-3.5,11.35Z" fill="#00bdc3"/>
    <path id="Path_57221" data-name="Path 57221" d="M77,38.279l12.527-8.031,6.834,13.219,14.864-.692-.691,14.865,13.218,6.833L115.721,77l8.031,12.528-13.218,6.833.691,14.864-14.864-.691-6.834,13.219L77,115.722l-12.527,8.031-6.834-13.219-14.864.691.691-14.864L30.248,89.528,38.279,77,30.248,64.473,43.466,57.64l-.691-14.865,14.864.692,6.834-13.219Z" fill="none" stroke="#00bdc3" stroke-linejoin="round" stroke-width="4"/>
  </g>
</svg>
