<svg id="Group_43163" data-name="Group 43163" xmlns="http://www.w3.org/2000/svg" xmlns:xlink="http://www.w3.org/1999/xlink" width="154" height="154" viewBox="0 0 154 154">
  <defs>
    <clipPath id="clip-path">
      <rect id="Rectangle_18884" data-name="Rectangle 18884" width="154" height="154" fill="none"/>
    </clipPath>
  </defs>
  <g id="Group_43162" data-name="Group 43162" clip-path="url(#clip-path)">
    <path id="Path_57226" data-name="Path 57226" d="M62.407,75.307c-1.176-6.852,3.863-13.827,8.241-20.014.314-.441,5.5-1.686,8.325-1.346,4.962,2.775,12.026-2.522,6.863-8.575l-2.985-4.137a3.7,3.7,0,0,0-3.934-1.45,47,47,0,0,0-19.4,9.947A52.093,52.093,0,0,0,47.9,64.246a58.062,58.062,0,0,0-7.225,22.483,15.768,15.768,0,0,0,8.63,10.445,38.6,38.6,0,0,0,18.613,4.445A39.253,39.253,0,0,0,86.063,97.46a2.786,2.786,0,0,1,3.119.423l11.567,10.459h8.582V70.032l-3.791,1.4a2.769,2.769,0,0,1-2.55-.325,16.686,16.686,0,0,0-9.544-2.934A15.6,15.6,0,0,0,81.275,73.5C75.411,69.357,69.209,71.355,62.407,75.307Z" fill="none" stroke="#00bdc3" stroke-linejoin="round" stroke-width="4"/>
    <circle id="Ellipse_90" data-name="Ellipse 90" cx="75" cy="75" r="75" transform="translate(2 2)" fill="none" stroke="#00bdc3" stroke-miterlimit="10" stroke-width="4"/>
  </g>
</svg>
