<svg xmlns="http://www.w3.org/2000/svg" width="14.559" height="20.735" viewBox="0 0 14.559 20.735">
  <g id="Cart_Icon" data-name="Cart Icon" transform="translate(0.75 0.75)">
    <path id="Rectangle_11" data-name="Rectangle 11" d="M3.26,0H9.8a3.26,3.26,0,0,1,3.26,3.26V15.293a0,0,0,0,1,0,0H0a0,0,0,0,1,0,0V3.26A3.26,3.26,0,0,1,3.26,0Z" transform="translate(0 3.943)" fill="none" stroke="#181a1d" stroke-linecap="round" stroke-linejoin="round" stroke-width="1.5"/>
    <path id="Path_3" data-name="Path 3" d="M-52.261,123.5v-3.771a2.829,2.829,0,0,1,2.829-2.829h0a2.829,2.829,0,0,1,2.828,2.829V123.5" transform="translate(55.962 -116.895)" fill="none" stroke="#181a1d" stroke-linecap="round" stroke-linejoin="round" stroke-width="1.5"/>
  </g>
</svg>
