<svg id="Group_8482" data-name="Group 8482" xmlns="http://www.w3.org/2000/svg" width="128.397" height="29.853" viewBox="0 0 128.397 29.853">
  <path id="Path_44" data-name="Path 44" d="M102.181,166.62h0l6.651-9.921a.172.172,0,0,0-.007-.185.17.17,0,0,0-.152-.089h-3.228a.692.692,0,0,0-.6.333l-5.31,8.18a.206.206,0,0,1-.181.1.226.226,0,0,1-.181-.1l-5.3-8.18a.7.7,0,0,0-.6-.333H90.038a.162.162,0,0,0-.152.089.172.172,0,0,0-.007.185l6.651,9.921a2.22,2.22,0,0,1,.37.977l1.886,13.659a.3.3,0,0,0,.283.259h.573a.3.3,0,0,0,.283-.259L101.81,167.6a2.224,2.224,0,0,1,.37-.977m8.772-14.957H87.757a.178.178,0,0,0-.113.084.209.209,0,0,0-.007.186l1.7,3.294a.206.206,0,0,0,.131.1.19.19,0,0,0,.166-.015,21.316,21.316,0,0,1,19.433,0,.189.189,0,0,0,.167.015.177.177,0,0,0,.123-.1l1.7-3.294a.188.188,0,0,0-.007-.186.156.156,0,0,0-.1-.084ZM101,181.417h0a14.521,14.521,0,0,0,12.672-14.525,14.738,14.738,0,0,0-3.6-9.691.2.2,0,0,0-.225-.059.212.212,0,0,0-.152.186,51.469,51.469,0,0,1-1.538,8.521c-1.756,6.656-4.5,12.223-7.282,15.325a.137.137,0,0,0-.022.162.135.135,0,0,0,.146.084Zm-3.3,0a14.521,14.521,0,0,1-12.679-14.525,14.738,14.738,0,0,1,3.6-9.691.21.21,0,0,1,.232-.059.215.215,0,0,1,.145.186,52.982,52.982,0,0,0,1.538,8.521c1.763,6.656,4.512,12.223,7.29,15.325a.149.149,0,0,1,.022.162.141.141,0,0,1-.144.084Z" transform="translate(-85.024 -151.663)" fill="#181a1d" fill-rule="evenodd"/>
  <path id="Path_45" data-name="Path 45" d="M213.58,179.138h2.25v13.747h-2.25v-5.842H202.726v5.842h-.139l-2.112-2.076V179.138h2.25v5.843h10.854Z" transform="translate(-165.998 -170.933)" fill="#181a1d"/>
  <path id="Path_42286" data-name="Path 42286" d="M316.5,193.16a2.467,2.467,0,0,1-2.473-2.472v-8.749a2.468,2.468,0,0,1,2.473-2.472h8.73a2.415,2.415,0,0,1,1.759.723,2.367,2.367,0,0,1,.733,1.75v.818h-2.073v-.533a.852.852,0,0,0-.133-.561.8.8,0,0,0-.571-.143h-8.159a.566.566,0,0,0-.7.7V190.4a.566.566,0,0,0,.7.7h8.159a.806.806,0,0,0,.571-.143.853.853,0,0,0,.133-.561V187.72h-3.233v-.139l1.9-1.934h3.407v5.04a2.368,2.368,0,0,1-.733,1.75,2.413,2.413,0,0,1-1.759.723Z" transform="translate(-245.64 -171.163)" fill="#181a1d"/>
  <path id="Path_42287" data-name="Path 42287" d="M367,193.16V179.466h12.552v2.054h-10.48v3.747H377.5v2.092h-8.426v3.747h10.48v2.054Z" transform="translate(-282.793 -171.163)" fill="#181a1d"/>
  <path id="Path_42288" data-name="Path 42288" d="M416.149,193.16V181.938a2.468,2.468,0,0,1,2.473-2.472h8.73a2.416,2.416,0,0,1,1.759.723,2.368,2.368,0,0,1,.732,1.75V193.16H427.77v-4.793H418.2v4.793Zm2.054-6.847h9.567v-4.089a.852.852,0,0,0-.133-.561.8.8,0,0,0-.571-.143h-8.159a.566.566,0,0,0-.7.7Z" transform="translate(-317.265 -171.163)" fill="#181a1d"/>
  <path id="Path_42289" data-name="Path 42289" d="M469.121,193.2V179.529h11.2A2.5,2.5,0,0,1,482.815,182v3.842a2.5,2.5,0,0,1-2.491,2.472h-1.37l3.8,4.752v.136h-2.4l-4.089-4.888h-5.1V193.2Zm2.758-6.961h8.159a.846.846,0,0,0,.571-.133.809.809,0,0,0,.133-.552v-3.271a.853.853,0,0,0-.133-.561.806.806,0,0,0-.571-.142h-8.159a.566.566,0,0,0-.7.7v3.271a.767.767,0,0,0,.143.552A.848.848,0,0,0,471.879,186.243Z" transform="translate(-354.418 -171.207)" fill="#181a1d"/>
  <path id="Path_42290" data-name="Path 42290" d="M270.61,179.138h2.666l-6.916,8.592v5.155h-2.247V187.73l-6.918-8.592h2.646l5.4,6.262Z" transform="translate(-205.779 -170.933)" fill="#181a1d"/>
</svg>
